<?xml version="1.0" standalone="no"?>
<!DOCTYPE svg PUBLIC "-//W3C//DTD SVG 20010904//EN"
 "http://www.w3.org/TR/2001/REC-SVG-20010904/DTD/svg10.dtd">
<svg version="1.0" xmlns="http://www.w3.org/2000/svg"
 width="249.000000pt" height="249.000000pt" viewBox="0 0 249.000000 249.000000"
 preserveAspectRatio="xMidYMid meet">
<metadata>
Created by potrace 1.11, written by Peter Selinger 2001-2013
</metadata>
<g transform="translate(0.000000,249.000000) scale(0.100000,-0.100000)"
fill="#000000" stroke="none">
<path d="M1085 1989 c-122 -37 -236 -218 -205 -323 7 -23 17 -47 22 -53 7 -9
-7 -31 -52 -80 -78 -86 -166 -217 -222 -329 -54 -110 -63 -195 -28 -287 27
-72 59 -111 133 -158 32 -21 54 -40 50 -42 -4 -3 -27 -10 -49 -16 -80 -21
-124 -78 -124 -161 0 -32 7 -48 35 -79 33 -37 35 -42 35 -112 0 -51 -6 -87
-20 -117 -15 -32 -16 -42 -6 -42 8 0 16 7 20 15 3 9 12 12 21 8 13 -5 14 -7 3
-14 -8 -5 23 -9 75 -9 l87 0 0 66 c0 69 12 104 34 104 18 0 36 -52 36 -101 0
-74 -30 -69 391 -69 l379 0 0 38 0 37 22 -37 22 -38 94 0 94 0 -21 33 c-29 43
-68 129 -82 179 -10 38 -9 42 19 72 83 86 48 216 -72 272 -28 13 -61 24 -73
24 -29 0 -29 5 2 38 93 100 99 295 14 465 -87 171 -242 335 -379 399 -41 19
-49 27 -44 43 3 11 8 52 11 90 3 60 0 76 -19 110 -39 68 -123 98 -203 74z
m-12 -64 c1 -6 -11 -11 -28 -13 -29 -2 -29 -2 -10 13 20 16 35 16 38 0z m-63
-35 c0 -5 -18 -26 -39 -47 -34 -31 -38 -40 -30 -60 20 -54 3 -117 -20 -74 -14
25 -14 46 -1 93 15 53 90 127 90 88z m-20 -80 c0 -5 -7 -10 -15 -10 -8 0 -15
5 -15 10 0 6 7 10 15 10 8 0 15 -4 15 -10z m315 -160 c22 -8 24 -13 15 -30
-12 -23 -28 -25 -53 -6 -10 8 -15 20 -11 30 7 19 13 20 49 6z m2 -210 c42 -25
53 -65 26 -92 -33 -32 -354 -79 -438 -64 -26 5 -41 16 -55 39 -27 44 -25 54
13 77 63 39 160 57 317 59 88 1 110 -2 137 -19z m-516 -32 c-82 -124 -131
-261 -131 -365 0 -91 20 -134 91 -196 31 -27 47 -47 40 -52 -6 -3 -9 -11 -6
-16 14 -21 -23 -6 -65 27 -54 43 -97 104 -106 150 -15 83 0 158 53 266 28 57
70 129 93 161 44 61 67 79 31 25z m403 -359 c9 -46 7 -97 -3 -104 -6 -3 -28
-7 -51 -9 -34 -3 -44 1 -60 22 -23 28 -28 101 -7 103 66 5 90 9 95 14 12 11
20 4 26 -26z m-347 -281 c31 -29 29 -39 -7 -27 -19 7 -30 18 -30 30 0 25 8 24
37 -3z m-22 -78 c-3 -4 6 -24 19 -43 13 -19 21 -39 18 -43 -4 -4 -2 -4 4 -1 6
4 29 -2 50 -12 68 -33 155 -44 287 -38 166 8 248 28 360 85 4 2 7 -1 7 -6 0
-5 -30 -23 -67 -39 -143 -65 -439 -77 -592 -26 -68 22 -111 67 -111 116 0 34
2 38 15 27 8 -7 13 -16 10 -20z m-156 -66 c-17 -18 -24 -37 -24 -69 0 -49 -16
-46 -17 3 -1 31 48 110 60 98 3 -4 -5 -18 -19 -32z m239 -191 c3 -17 -2 -23
-16 -23 -24 0 -46 25 -37 40 12 19 50 7 53 -17z m-188 -153 c0 -29 -4 -40 -15
-40 -12 0 -14 7 -9 28 14 66 24 71 24 12z"/>
</g>
</svg>
